<?xml version="1.0" encoding="UTF-8" standalone="no"?>
<!-- Generator: Adobe Illustrator 24.0.1, SVG Export Plug-In . SVG Version: 6.00 Build 0)  -->

<svg
   version="1.1"
   id="Layer_1"
   x="0px"
   y="0px"
   width="1000px"
   height="1000px"
   viewBox="0 0 1000 1000"
   style="enable-background:new 0 0 1000 1000;"
   xml:space="preserve"
   sodipodi:docname="initEdit.svg"
   inkscape:version="1.2.1 (9c6d41e410, 2022-07-14)"
   xmlns:inkscape="http://www.inkscape.org/namespaces/inkscape"
   xmlns:sodipodi="http://sodipodi.sourceforge.net/DTD/sodipodi-0.dtd"
   xmlns="http://www.w3.org/2000/svg"
   xmlns:svg="http://www.w3.org/2000/svg"><defs
   id="defs993" /><sodipodi:namedview
   id="namedview991"
   pagecolor="#ffffff"
   bordercolor="#000000"
   borderopacity="0.25"
   inkscape:showpageshadow="2"
   inkscape:pageopacity="0.0"
   inkscape:pagecheckerboard="0"
   inkscape:deskcolor="#d1d1d1"
   showgrid="false"
   inkscape:zoom="0.57558492"
   inkscape:cx="276.24073"
   inkscape:cy="482.98694"
   inkscape:window-width="1920"
   inkscape:window-height="1009"
   inkscape:window-x="-8"
   inkscape:window-y="-8"
   inkscape:window-maximized="1"
   inkscape:current-layer="illustration"
   inkscape:lockguides="true" />
<g
   id="illustration"
   style="fill:#000000">
	
	
	
	
	
	
	
	
	
	
	
	
	
	
	
	
	
	
	
	
	
	
	
	
	
	
	
	
	
	
	
<ellipse
   style="fill:#ff6600"
   id="path391"
   cx="497.75455"
   cy="167.65555"
   rx="110.32256"
   ry="92.948929" /><path
   style="fill:#ff6600"
   d="m 467.35067,132.0396 -29.53517,36.48462 43.43408,-3.47473 z"
   id="path655" /><path
   style="fill:#241c1c;stroke-width:0.926411"
   d="m 437.8155,112.92858 v 33.9751 l 48.64617,7.72162 z"
   id="path565" /><path
   style="fill:#241c1c"
   d="m 559.43092,109.45387 -45.17144,45.17144 46.90881,-10.42418 z"
   id="path696" /><path
   style="fill:#2b0000;stroke-width:0.668856"
   d="m 499.49189,156.36269 -14.76759,41.69671 29.53518,-1.09728 z"
   id="path1197" /><path
   style="fill:#2b0000;fill-opacity:1"
   id="path2328"
   d="m 433.44454,196.43775 c 2.96821,2.3972 5.41277,5.35045 7.77225,8.32866 2.62966,3.45117 5.57106,6.63075 8.38958,9.92103 2.30077,2.33294 4.23655,5.05038 6.87304,7.02314 3.08056,2.6655 6.85233,4.17655 10.65153,5.47373 3.1736,1.14466 6.58651,0.99309 9.84314,1.66377 2.86092,0.46367 5.55551,1.40172 8.3151,2.23598 3.12574,0.56533 6.22336,1.21071 9.33762,1.85298 3.42079,0.67084 6.90741,0.82588 10.38258,0.92502 3.47981,0.0691 6.96057,0.0553 10.44087,0.0507 3.27257,0.35497 6.14805,-0.43494 9.13552,-1.60706 3.17315,-1.63722 6.32527,-3.31109 9.47563,-4.99588 2.23307,-1.5973 4.46918,-3.1646 6.68576,-4.77877 2.35792,-1.60215 4.33912,-3.64337 6.71837,-5.23759 2.60122,-1.43819 4.2602,-3.8954 6.48092,-5.75574 2.13412,-1.85997 4.02444,-3.87639 5.86487,-6.01457 1.46736,-1.20509 2.76366,-2.5985 4.08237,-3.95958 0,0 -3.17856,-1.94185 -3.17856,-1.94185 v 0 c -1.33048,1.36162 -2.64681,2.74319 -4.10123,3.97544 -1.82132,2.12939 -3.71645,4.11693 -5.83598,5.96312 -2.18745,1.88012 -3.86859,4.28579 -6.44967,5.72694 -2.36978,1.61092 -4.37319,3.63706 -6.73541,5.24089 -2.2159,1.58836 -4.40616,3.18925 -6.64813,4.74412 -3.13229,1.69049 -6.27338,3.36578 -9.45513,4.95591 -2.95483,1.15441 -5.8309,1.81657 -9.04964,1.49807 -3.478,0.004 -6.95658,0.0176 -10.43395,-0.0601 -3.46418,-0.10923 -6.93889,-0.28288 -10.3443,-0.97792 -3.1082,-0.65484 -6.22025,-1.23873 -9.3253,-1.88712 -2.75374,-0.86121 -5.48043,-1.71568 -8.33531,-2.20055 -3.26562,-0.58374 -6.65218,-0.54628 -9.80978,-1.70547 -2.30156,-0.80744 -0.68271,-0.22388 -2.89836,-1.06136 -0.42342,-0.16004 -1.58682,-0.80014 -1.27237,-0.47453 0.55266,0.57224 1.33802,0.86234 2.0285,1.25747 0.75191,0.43028 -2.97511,-1.85422 -2.09804,-1.53387 -2.71834,-1.87049 -4.59942,-4.64948 -6.93275,-6.94996 -2.79451,-3.30343 -5.77259,-6.44382 -8.38416,-9.90391 -2.34804,-2.98181 -4.75789,-5.9785 -7.73456,-8.36008 0,0 -3.45502,-1.43111 -3.45502,-1.43111 z" /><path
   style="fill:#2b0000;fill-opacity:1"
   id="path2330"
   d="m 444.06828,198.14055 c -2.22131,3.50452 -4.50344,6.95729 -6.87715,10.36127 -1.38188,1.61771 -2.66445,3.31479 -4.01825,4.95603 0,0 3.19183,1.9146 3.19183,1.9146 v 0 c 1.36336,-1.64654 2.65802,-3.34611 4.0312,-4.98427 2.35983,-3.40316 4.61202,-6.86802 6.87789,-10.33175 0,0 -3.20552,-1.91588 -3.20552,-1.91588 z" /><path
   style="fill:#2b0000;fill-opacity:1"
   id="path2336"
   d="m 454.87748,205.13582 c -1.82425,3.683 -4.15493,7.10969 -6.31361,10.60924 -1.18463,1.81856 -2.49436,3.54465 -3.71948,5.33566 0,0 3.19611,1.87781 3.19611,1.87781 v 0 c 1.22719,-1.79669 2.54096,-3.52687 3.7288,-5.35034 2.17068,-3.51868 4.49339,-6.9688 6.37494,-10.64813 0,0 -3.26676,-1.82424 -3.26676,-1.82424 z" /><path
   style="fill:#2b0000;fill-opacity:1"
   id="path2338"
   d="m 467.22975,212.32962 c -0.40283,4.32111 -1.97433,8.34658 -3.35543,12.41423 -0.52412,2.12308 -1.4527,4.10628 -2.16148,6.16916 0,0 3.26462,1.80126 3.26462,1.80126 v 0 c 0.70313,-2.0663 1.6333,-4.0509 2.1489,-6.17765 1.37417,-4.08719 2.94353,-8.12867 3.40433,-12.45583 0,0 -3.30094,-1.75117 -3.30094,-1.75117 z" /><path
   style="fill:#2b0000;fill-opacity:1"
   id="path2346"
   d="m 483.05934,215.83159 c 0.0834,4.42459 0.11689,8.81672 -0.46957,13.20687 -0.61564,3.73994 -0.96182,7.50992 -1.1435,11.29323 0,0 3.30611,1.70412 3.30611,1.70412 v 0 c 0.17301,-3.7753 0.50521,-7.53854 1.11708,-11.27081 0.59269,-4.40166 0.56534,-8.79946 0.51981,-13.23672 0,0 -3.32993,-1.69669 -3.32993,-1.69669 z" /><path
   style="fill:#2b0000;fill-opacity:1"
   id="path2348"
   d="m 507.38242,221.04368 c 0.0252,4.4095 0.0166,8.81912 0.0135,13.22866 0.25469,2.77956 0.86326,5.50648 1.23973,8.27062 0,0 3.34159,1.64686 3.34159,1.64686 v 0 c -0.36437,-2.75673 -0.9578,-5.47254 -1.27833,-8.23452 -0.003,-4.40497 -0.0117,-8.81001 0.0135,-13.21493 0,0 -3.32993,-1.69669 -3.32993,-1.69669 z" /><path
   style="fill:#2b0000;fill-opacity:1"
   id="path2350"
   d="m 524.95035,214.12197 c 0.94241,4.75551 1.65351,9.58375 2.80876,14.29364 0.94159,2.78795 1.29335,5.71962 2.06741,8.54454 0,0 3.36747,1.59964 3.36747,1.59964 v 0 c -0.83271,-2.80995 -1.10787,-5.76551 -2.09357,-8.54425 -1.20888,-4.67903 -1.88333,-9.50942 -2.7931,-14.25236 0,0 -3.35697,-1.64121 -3.35697,-1.64121 z" /><path
   style="fill:#2b0000;fill-opacity:1"
   id="path2356"
   d="m 541.17149,200.10225 c 2.4993,3.68016 5.24556,7.18021 8.34851,10.36865 2.29806,2.53072 4.6344,5.02031 6.97015,7.51514 1.49789,1.31749 2.81096,2.80493 3.998,4.40173 0,0 3.42074,1.48026 3.42074,1.48026 v 0 c -1.15596,-1.62726 -2.44731,-3.15293 -3.9814,-4.44294 -2.31517,-2.52199 -4.70965,-4.96738 -6.98164,-7.53126 -3.11804,-3.15461 -5.90708,-6.61247 -8.34022,-10.32438 0,0 -3.43414,-1.4672 -3.43414,-1.4672 z" /><path
   style="fill:#2b0000;fill-opacity:1"
   id="path2358"
   d="m 530.54766,205.29053 c 1.86119,3.86629 4.51345,7.2514 6.8141,10.85148 1.60118,3.1721 3.55233,6.13678 5.43101,9.14432 1.06194,2.04225 0.5113,1.05229 1.64687,2.97268 0,0 3.4046,1.50871 3.4046,1.50871 v 0 c -1.16021,-1.90029 -0.60716,-0.90898 -1.64932,-2.9794 -1.85929,-3.02256 -3.87343,-5.95639 -5.43861,-9.15205 -2.27454,-3.60549 -4.98556,-6.9453 -6.79084,-10.83092 0,0 -3.41781,-1.51482 -3.41781,-1.51482 z" /><path
   style="fill:#999999;fill-opacity:1"
   d="m 86.868154,264.07919 v 45.17144 34.74727 c 42.266956,-0.61257 84.533916,-1.22513 126.800876,-1.8377 37.65174,-0.54568 75.30349,-1.09135 112.95523,-1.63703 l 4.64514,109.62513 c 1.34723,31.79457 2.69445,63.58915 4.04168,95.38372 59.07505,-0.33951 118.1501,-0.67903 177.22515,-1.01854 l 125.07603,-0.71883 1.76627,-102.44402 1.70845,-99.0901 125.07427,-0.78663 151.16647,-0.95073 c 0.57911,-28.37693 1.15824,-56.75386 1.73736,-85.13079 -71.42951,0.59155 -144.22876,1.19444 -217.14111,1.79827 -139.18913,1.15271 -278.79039,2.30882 -410.06151,3.39595 -73.79843,0.61117 -144.96413,1.20053 -211.943758,1.75523"
   id="path2481"
   sodipodi:nodetypes="cccscscsccccccssc" /><path
   style="fill:#2b0000;fill-opacity:1"
   id="path2613"
   d="m 440.77586,455.08705 c -5.02505,-1.41417 -9.9095,-3.27959 -14.59876,-5.57486 -7.30856,-4.16836 3.41393,1.9564 4.54233,2.51303 0.81314,0.40113 -1.48646,-1.03872 -2.22508,-1.56459 -2.33474,-1.66223 -4.57676,-3.3522 -6.75445,-5.21553 -3.87337,-3.54165 -7.47133,-7.35773 -10.51261,-11.6383 -2.89989,-3.91303 -4.89451,-8.3321 -6.76001,-12.7992 -1.886,-5.01014 -2.78346,-10.30929 -4.14544,-15.47211 -1.47352,-4.78535 -2.1506,-9.72004 -2.50744,-14.69661 -0.26413,-4.61138 -0.24869,-9.23243 -0.23873,-13.84951 -0.26181,-4.035 0.43513,-7.92214 1.49237,-11.79107 0.82485,-3.67904 2.24225,-7.1322 4.19149,-10.34664 2.24947,-4.05736 5.36451,-7.53748 8.3798,-11.03609 3.65217,-4.21061 7.55652,-8.16229 11.75005,-11.82884 3.43074,-3.53572 7.53776,-6.28106 11.37438,-9.34061 3.34118,-2.77347 7.2204,-4.61734 11.05111,-6.58254 4.17023,-2.05648 8.43537,-4.02274 12.86802,-5.44807 3.98504,-1.32705 8.14249,-1.92697 12.20391,-2.93199 3.99157,-0.90772 7.87765,-2.13549 11.91016,-2.86897 4.04027,-0.34536 8.00925,-1.06567 12.01997,-1.63577 6.23989,-0.70741 12.52658,-0.79245 18.79897,-0.88106 5.45011,0.14639 10.96019,-0.41816 16.38362,0.23485 4.80847,0.37709 19.95717,9.19032 3.73745,-10e-4 5.69808,3.98078 24.02725,13.28051 6.54141,3.86673 -0.75664,-0.40735 1.44462,0.93101 2.16481,1.39979 2.62421,1.70812 1.98185,1.29053 4.58301,3.05711 4.26394,3.00292 8.00814,6.71147 11.58593,10.49206 2.92014,3.77239 5.89998,7.48503 9.06037,11.06126 3.21587,3.38314 6.13011,7.0391 8.40867,11.11655 2.21245,3.94438 4.16715,7.98623 5.75486,12.22082 1.7743,4.80242 2.78217,9.81163 4.05519,14.75613 1.9485,7.04199 2.63763,14.32367 3.09437,21.58865 0.32289,6.10744 0.4777,12.20611 -0.16925,18.29224 -0.81404,4.32602 -1.86953,8.61399 -3.7153,12.61933 -2.36281,4.77855 -5.72124,9.03045 -9.39354,12.87133 -3.3938,3.12754 -6.67261,6.40533 -10.25869,9.31387 -3.29618,3.08446 -7.05345,5.3031 -10.94529,7.50406 -4.44713,1.91997 -8.83266,3.94991 -13.3444,5.72484 -3.82646,1.50746 -7.87379,2.06095 -11.9478,2.31502 -2.33874,0.11069 -4.68056,0.10752 -7.02124,0.10861 0,0 9.0317,6.55824 9.0317,6.55824 v 0 c 2.35395,-0.0114 4.70969,-0.021 7.05964,-0.17693 4.13601,-0.34197 8.22336,-1.04172 12.08429,-2.63559 4.53798,-1.83364 9.00494,-3.81043 13.46349,-5.82676 3.93579,-2.2302 7.67406,-4.6086 11.03671,-7.67473 3.57678,-2.98738 6.93993,-6.23323 10.31254,-9.44678 3.68799,-3.98567 7.11207,-8.31081 9.59024,-13.1609 1.96656,-4.09647 2.99436,-8.51839 3.85,-12.96876 0.64284,-6.15558 0.54572,-12.3135 0.18665,-18.49084 -0.45674,-7.31325 -1.12601,-14.65509 -2.98408,-21.76618 -1.27213,-4.95377 -2.13996,-10.00054 -3.91826,-14.81302 -1.53576,-4.29283 -3.43493,-8.39106 -5.68829,-12.35575 -2.11656,-4.2286 -5.09695,-7.94903 -8.33857,-11.37726 -3.1807,-3.54904 -6.23715,-7.19703 -9.01523,-11.07316 -3.56821,-3.84591 -7.34109,-7.58978 -11.543,-10.73433 -2.20111,-1.52195 -4.40907,-3.13703 -6.70783,-4.50908 -10.60945,-6.33239 -17.75676,-10.25574 -4.42568,-2.61452 0.71091,0.40749 -1.40938,-0.83629 -2.11407,-1.25444 -7.48349,-4.33848 -14.38141,-9.17024 -23.00128,-10.60724 -5.44178,-0.39998 -10.91457,6.4e-4 -16.3661,-0.0685 -6.32695,0.10739 -12.66857,0.21044 -18.96126,0.93729 -4.02236,0.58073 -8.03506,1.1608 -12.06658,1.66529 -4.02436,0.7999 -7.93993,1.9997 -11.93885,2.90969 -4.10637,0.93111 -8.25172,1.67757 -12.2579,3.01567 -4.44287,1.53869 -8.73095,3.52803 -12.95201,5.58951 -3.90457,1.96517 -7.77427,3.959 -11.15084,6.78434 -3.85682,3.05593 -7.96129,5.82639 -11.37095,9.40561 -4.22148,3.71052 -8.14145,7.7139 -11.84206,11.94737 -3.09002,3.51622 -6.2182,7.06783 -8.53222,11.15709 -2.05102,3.27608 -3.47824,6.85305 -4.33808,10.628 -1.08692,3.95104 -1.93605,7.92086 -1.63658,12.05173 0.01,4.6471 0.0317,9.29594 0.24578,13.93903 0.33575,5.03895 0.91423,10.05518 2.43307,14.8971 1.40535,5.19063 2.30929,10.51482 4.08163,15.6012 1.83926,4.51462 3.73185,9.03443 6.62684,12.99893 2.9672,4.41175 6.60868,8.26625 10.4682,11.91207 6.90827,6.27639 15.09734,10.92882 23.29657,15.30696 4.80178,2.23553 9.77663,4.17116 14.92723,5.4349 0,0 -8.95908,-6.73797 -8.95908,-6.73797 z" /><path
   style="fill:#2b0000;fill-opacity:1"
   id="path2615"
   d="m 448.45688,462.57783 c 0.083,4.83534 0.0553,9.67168 0.0616,14.50751 -0.004,4.42273 -0.0215,8.84543 -0.0309,13.26815 -0.007,3.55658 -0.008,7.11317 -0.009,10.66975 -0.15354,8.42227 5.23559,8.23601 13.17702,12.58773 3.2467,0.53625 6.60177,0.75277 9.86146,0.26605 3.80741,-0.42731 6.68472,-2.82362 9.22062,-5.51403 2.45255,-2.94255 3.20004,-6.55627 3.60135,-10.25661 0.0377,-0.58887 0.0872,-1.17709 0.11314,-1.76659 0.003,-0.0761 0.59622,-6.65797 0.87513,-5.41343 -3.22153,-1.6793 -6.36618,-3.51511 -9.66457,-5.0379 -0.21997,-0.10156 0.1708,0.45393 0.23915,0.68638 0.1161,0.39483 0.21151,0.79547 0.31381,1.19411 0.44984,1.75301 0.77732,3.49742 1.06151,5.28449 0.24998,3.45471 0.74197,6.77995 2.14392,9.95909 3.28792,5.6784 10.27936,8.56026 16.61224,9.20557 3.43821,-0.0776 5.88075,-1.66951 8.07138,-4.19162 1.92491,-2.93987 2.76477,-6.46582 3.60959,-9.84447 -0.30308,-0.0997 1.62438,-9.22698 1.2876,-5.93512 -12.56459,-6.90791 -10.04708,-7.87156 -8.47385,-3.72769 0.85456,2.25093 1.52377,4.61805 2.18007,6.93285 0.89721,4.4988 1.87101,7.74253 4.85846,11.30162 5.24187,5.53279 11.92221,8.64642 18.70578,12.14751 0.76138,0.39296 1.58698,0.70635 2.43628,0.81948 0.79725,0.1062 1.60437,-0.11625 2.40656,-0.17438 4.70714,-0.70694 6.93394,-3.83927 8.69529,-7.91578 1.61348,-4.72132 1.79438,-9.71336 1.93152,-14.65049 0.0754,-5.30605 0.0957,-10.6129 0.0753,-15.91941 -0.11247,-4.4486 0.19492,-8.91722 -0.18714,-13.35361 -0.39932,-2.31759 -1.25362,-4.36239 -2.64186,-6.23844 0,0 -10.30367,-4.35897 -10.30367,-4.35897 v 0 c 1.6077,1.59889 2.41506,3.44327 2.96332,5.64719 0.58527,4.38886 0.0955,8.85243 0.28063,13.26927 0.0136,5.30212 0.0951,10.60502 -0.0219,15.90659 -0.14527,4.79038 -0.28069,9.65234 -1.79827,14.24673 -1.60604,3.74376 -3.60397,6.48797 -7.98624,6.84843 -5.17716,-0.29765 -8.8871,-3.86992 2.50119,3.25553 0.81067,0.50722 -1.69055,-0.90232 -2.4805,-1.44123 -1.75428,-1.19678 -2.83958,-2.34174 -4.37375,-3.79485 -3.29406,-3.45576 -4.10118,-6.18659 -4.99935,-10.804 -0.20144,-0.75604 -2.31863,-8.21787 -2.54213,-8.38992 -3.18422,-2.45105 -6.68289,-4.46392 -10.02433,-6.69589 -2.59812,1.45813 -1.52875,5.24467 -2.3053,7.72054 -0.77713,3.20481 -1.57155,6.5674 -3.35479,9.36772 -2.03744,2.24478 -4.35045,3.52082 -7.46998,3.28432 -1.12412,-0.17799 -1.83033,-0.23736 -2.90486,-0.60788 -0.42392,-0.14617 -1.61418,-0.77382 -1.23342,-0.53699 15.72599,9.78138 8.98517,6.28621 6.67104,3.27887 -1.46542,-3.10171 -2.24073,-6.23796 -2.32823,-9.70207 -0.0726,-0.50894 -1.24721,-7.37009 -1.32457,-7.42196 -3.22247,-2.16062 -6.71242,-3.8928 -10.06863,-5.8392 -1.89293,2.09156 -1.05797,5.68324 -1.43835,8.23861 -0.32457,3.46221 -0.90811,6.87352 -3.22329,9.62256 -2.45056,2.52633 -5.18435,4.57795 -8.81187,4.86141 -3.18758,0.27232 -6.48568,0.17606 -9.57437,-0.71938 2.79072,1.67232 5.60375,3.30798 8.37216,5.01698 0.34875,0.21529 -0.76759,-0.3047 -1.10813,-0.53275 -1.71936,-1.1514 -1.74523,-3.23921 -1.67665,-5.09747 -6.4e-4,-3.55949 -0.002,-7.11898 -0.009,-10.67846 -0.009,-4.43322 -0.0268,-8.86642 -0.0309,-13.29965 0.006,-4.8149 -0.0218,-9.63034 0.0616,-14.44475 0,0 -9.98979,-5.09005 -9.98979,-5.09005 z" /><ellipse
   style="fill:#2b0000;fill-opacity:1"
   id="path2617"
   cx="462.13858"
   cy="376.13913"
   rx="22.58572"
   ry="19.979675" /><ellipse
   style="fill:#2b0000;fill-opacity:1"
   id="path2619"
   cx="527.28973"
   cy="375.27042"
   rx="21.717039"
   ry="19.110994" /><path
   style="fill:#2b0000;fill-opacity:1"
   d="m 491.67376,403.06823 c -1.73737,2.89561 -3.24935,5.93898 -5.21209,8.68682 -1.77431,2.48403 -11.64129,11.55298 -10.42418,12.16154 3.15347,1.57674 19.73745,0 24.32308,0 0.71539,0 4.7522,0.45989 5.21209,0 1.00772,-1.00772 -2.98799,-11.67481 -3.47473,-12.16154 -0.4095,-0.4095 -1.32786,0.4095 -1.73736,0 -0.819,-0.819 0.90444,-2.75118 0,-3.47473 -2.63686,-2.10949 -5.79121,-3.47473 -8.68681,-5.21209 z"
   id="path2629" /><path
   style="fill:#000080;fill-opacity:1"
   id="path3246"
   d="m 42.399176,70.365709 c 8.50546,0.317728 17.02028,0.833718 25.53373,0.949017 7.22943,-0.0078 14.45505,0.158985 21.66903,0.632738 3.99258,0.284746 7.97238,0.716794 11.951394,1.145871 6.61335,2.766676 19.26293,10.087524 -14.096204,-10.320366 -0.61658,-0.377207 0.70753,1.270319 0.9358,1.956152 0.60016,1.803224 0.65651,3.436377 0.84566,5.310031 0.27278,4.801647 -0.17157,9.60211 -0.6485,14.375799 -0.56897,4.071977 -0.34822,8.188284 0.25699,12.238168 0.64103,3.513691 0.59371,7.087791 0.98211,10.627991 -0.0316,2.22982 1.58028,6.45837 -0.78045,7.88824 -4.3124,0.81714 -8.70671,0.0482 -13.05628,0.10199 -6.52702,0.35139 -13.0388,0.67021 -19.58093,0.55583 -5.90702,0.37486 -11.81216,0.43507 -17.72235,0.15122 -4.72807,-0.28699 -9.44227,-0.76673 -14.15346,-1.25097 -4.73891,-0.47821 -9.47117,-1.01926 -14.20517,-1.54311 0,0 16.52857,14.90762 16.52857,14.90762 v 0 c 4.71746,0.4879 9.43587,0.96726 14.1505,1.48201 4.72197,0.48788 9.44743,0.95934 14.19584,1.09956 5.90027,0.17709 11.78346,-0.008 17.67915,-0.275 6.56858,0.0168 13.12005,-0.3745 19.68568,-0.47135 4.7474,0.12941 9.868954,1.05844 14.273834,-1.13774 3.19929,-3.08738 2.23379,-5.68257 1.95586,-9.75673 -0.4365,-3.57417 -0.44374,-7.15322 -0.95011,-10.72167 -0.66409,-3.88937 -1.17056,-7.84946 -0.6314,-11.792854 0.4983,-4.906872 0.95684,-9.829553 0.76479,-14.769159 -0.0606,-1.089868 -0.27943,-7.529086 -1.01658,-8.180418 C 99.496986,66.968512 94.168696,59.467778 84.976556,58.14975 c -3.95681,-0.400664 -7.91833,-0.770634 -11.89302,-0.940476 -7.12925,-0.28578 -14.26171,-0.28532 -21.39573,-0.286145 -8.64276,-0.187516 -17.32427,-0.535028 -25.91045,-1.545446 0,0 16.62177,14.988041 16.62177,14.988041 z" /><path
   style="fill:#000080;fill-opacity:1"
   id="path3246-7"
   d="m 693.06549,402.95919 c 8.50546,0.31773 17.02028,0.83372 25.53373,0.94902 7.22943,-0.008 14.45505,0.15899 21.66903,0.63274 3.99258,0.28474 7.97238,0.71679 11.95139,1.14587 6.61335,2.76668 19.26293,10.08752 -14.0962,-10.32037 -0.61658,-0.3772 0.70753,1.27032 0.9358,1.95616 0.60016,1.80322 0.65651,3.43637 0.84566,5.31003 0.27278,4.80164 -0.17157,9.60211 -0.6485,14.3758 -0.56897,4.07197 -0.34822,8.18828 0.25699,12.23816 0.64103,3.5137 0.59371,7.08779 0.98211,10.62799 -0.0316,2.22982 1.58028,6.45838 -0.78045,7.88825 -4.3124,0.81714 -8.70671,0.0482 -13.05628,0.10199 -6.52702,0.35139 -13.0388,0.67021 -19.58093,0.55583 -5.90702,0.37486 -11.81216,0.43507 -17.72235,0.15122 -4.72807,-0.28699 -9.44227,-0.76673 -14.15346,-1.25097 -4.73891,-0.47821 -9.47117,-1.01926 -14.20517,-1.54311 0,0 16.52857,14.90762 16.52857,14.90762 v 0 c 4.71746,0.4879 9.43587,0.96726 14.1505,1.48201 4.72197,0.48788 9.44743,0.95934 14.19584,1.09956 5.90027,0.17709 11.78346,-0.008 17.67915,-0.275 6.56858,0.0168 13.12005,-0.3745 19.68568,-0.47135 4.7474,0.12941 9.86895,1.05844 14.27383,-1.13774 3.19929,-3.08738 2.23379,-5.68257 1.95586,-9.75673 -0.4365,-3.57417 -0.44374,-7.15323 -0.95011,-10.72168 -0.66409,-3.88937 -1.17056,-7.84945 -0.6314,-11.79285 0.4983,-4.90687 0.95684,-9.82955 0.76479,-14.76916 -0.0606,-1.08987 -0.27943,-7.52908 -1.01658,-8.18042 -7.46969,-6.60006 -12.79798,-14.1008 -21.99012,-15.41883 -3.95681,-0.40066 -7.91833,-0.77063 -11.89302,-0.94047 -7.12925,-0.28578 -14.26171,-0.28532 -21.39573,-0.28615 -8.64276,-0.18751 -17.32427,-0.53502 -25.91045,-1.54544 0,0 16.62177,14.98804 16.62177,14.98804 z" /><path
   style="fill:#000080;fill-opacity:1;stroke-width:0.866714"
   id="path3252-3"
   d="m 760.0272,358.74241 c 0.78291,3.43876 0.73559,7.03033 0.777,10.59102 0.0229,3.83888 -0.45439,7.70786 -1.13734,11.58367 -0.56158,2.70156 -1.48988,5.38142 -2.09918,8.07994 0,0 20.91607,2.80141 20.91607,2.80141 v 0 c 0.5516,-2.72351 1.49559,-5.42648 2.03901,-8.15196 0.63975,-3.95681 1.17308,-7.90739 1.21326,-11.83397 -0.0927,-3.63665 -0.0687,-7.28062 -0.42812,-10.88025 0,0 -21.2807,-2.18986 -21.2807,-2.18986 z" /><path
   style="fill:#000080;fill-opacity:1;stroke-width:0.866714"
   id="path3252-6"
   d="m 786.08765,381.32813 c 0.78291,3.43877 0.73559,7.03034 0.777,10.59103 0.0229,3.83888 -0.45439,7.70786 -1.13734,11.58367 -0.56158,2.70156 -1.48988,5.38142 -2.09918,8.07994 0,0 20.91607,2.80141 20.91607,2.80141 v 0 c 0.5516,-2.72351 1.49559,-5.42648 2.03901,-8.15196 0.63975,-3.95681 1.17308,-7.90739 1.21326,-11.83397 -0.0927,-3.63665 -0.0687,-7.28062 -0.42812,-10.88025 0,0 -21.2807,-2.18987 -21.2807,-2.18987 z" /><path
   style="fill:#000080;fill-opacity:1"
   id="path3256"
   d="m 136.44916,151.82434 c 6.40911,-0.7434 12.83098,-1.37471 19.25324,-1.9926 5.71949,-0.54336 11.43697,-1.10722 17.15677,-1.64749 3.93066,-0.36925 7.86033,-0.74876 11.78957,-1.13284 3.76623,-0.30144 7.50438,-0.94122 11.28537,-0.86646 6.16517,1.50114 17.60623,5.68855 -11.38727,-5.3928 -0.5389,-0.20597 0.86842,0.76801 1.2303,1.21732 0.93438,1.1601 1.11341,1.9068 1.67798,3.29016 1.39686,4.91116 1.769,10.04132 2.28394,15.10153 -0.11922,3.3303 1.91771,9.41187 0.34235,12.4235 -0.23734,0.45372 -0.67098,0.77367 -1.00645,1.16051 -5.74853,3.20893 -12.81538,2.85027 -19.20046,2.88478 -8.74754,-0.31218 -17.5026,0.20556 -26.24647,0.0211 -5.70567,-0.17886 -11.41169,-0.25028 -17.11566,-0.006 -4.03061,0.21197 -8.04566,0.64116 -12.06157,1.03409 -0.64487,0.0637 -1.28974,0.12732 -1.93459,0.19098 0,0 16.02453,9.38199 16.02453,9.38199 v 0 c 0.64171,-0.0644 1.28341,-0.12895 1.92512,-0.19342 3.98773,-0.39238 7.97841,-0.77269 11.98222,-0.95901 5.61476,-0.22112 11.23174,-0.17184 16.84877,-0.0434 8.69741,-0.003 17.39521,-0.39725 26.09508,-0.15266 6.86416,-0.0853 14.73757,0.35411 20.42661,-4.10684 0.43016,-0.60497 0.9701,-1.14529 1.29048,-1.8149 1.90915,-3.99025 -0.39835,-8.95617 -0.21592,-13.11136 -0.47617,-5.17526 -0.90238,-10.37781 -2.00997,-15.46511 -3.19286,-10.94831 -13.90832,-13.83603 -24.83363,-14.95545 -3.83077,0.13645 -7.63451,0.58919 -11.448,0.96424 -3.89821,0.38956 -7.79588,0.78459 -11.69252,1.18967 -5.67001,0.58629 -11.34237,1.1487 -17.01268,1.73191 -6.49919,0.66047 -13.0008,1.30489 -19.51155,1.84129 0,0 16.0644,9.40675 16.0644,9.40675 z" /><path
   style="fill:#000080;fill-opacity:1"
   id="path3256-3"
   d="m 775.44311,490.09388 c 6.40911,-0.7434 12.83098,-1.37471 19.25324,-1.9926 5.71949,-0.54336 11.43697,-1.10722 17.15677,-1.64749 3.93066,-0.36925 7.86033,-0.74876 11.78957,-1.13284 3.76623,-0.30144 7.50438,-0.94122 11.28537,-0.86646 6.16517,1.50114 17.60623,5.68855 -11.38727,-5.3928 -0.5389,-0.20597 0.86842,0.76801 1.2303,1.21732 0.93438,1.1601 1.11341,1.9068 1.67798,3.29016 1.39686,4.91116 1.769,10.04132 2.28394,15.10153 -0.11922,3.3303 1.91771,9.41187 0.34235,12.4235 -0.23734,0.45372 -0.67098,0.77367 -1.00645,1.16051 -5.74853,3.20893 -12.81538,2.85027 -19.20046,2.88478 -8.74754,-0.31218 -17.5026,0.20556 -26.24647,0.0211 -5.70567,-0.17886 -11.41169,-0.25028 -17.11566,-0.006 -4.03061,0.21197 -8.04566,0.64116 -12.06157,1.03409 -0.64487,0.0637 -1.28974,0.12732 -1.93459,0.19098 0,0 16.02453,9.38199 16.02453,9.38199 v 0 c 0.64171,-0.0644 1.28341,-0.12895 1.92512,-0.19342 3.98773,-0.39238 7.97841,-0.77269 11.98222,-0.95901 5.61476,-0.22112 11.23174,-0.17184 16.84877,-0.0434 8.69741,-0.003 17.39521,-0.39725 26.09508,-0.15266 6.86416,-0.0853 14.73757,0.35411 20.42661,-4.10684 0.43016,-0.60497 0.9701,-1.14529 1.29048,-1.8149 1.90915,-3.99025 -0.39835,-8.95617 -0.21592,-13.11136 -0.47617,-5.17526 -0.90238,-10.37781 -2.00997,-15.46511 -3.19286,-10.94831 -13.90832,-13.83603 -24.83363,-14.95545 -3.83077,0.13645 -7.63451,0.58919 -11.448,0.96424 -3.89821,0.38956 -7.79588,0.78459 -11.69252,1.18967 -5.67001,0.58629 -11.34237,1.1487 -17.01268,1.73191 -6.49919,0.66047 -13.0008,1.30489 -19.51155,1.84129 0,0 16.0644,9.40675 16.0644,9.40675 z" /><path
   style="fill:#000080;fill-opacity:1"
   id="path3258-7"
   d="m 820.94983,443.59271 c 0.35464,3.71976 0.0164,7.24235 -1.11334,10.78156 0,0 16.28203,8.93656 16.28203,8.93656 v 0 c 1.16606,-3.69469 1.63667,-7.36336 1.44958,-11.25069 0,0 -16.61827,-8.46743 -16.61827,-8.46743 z" /><path
   style="fill:#000080;fill-opacity:1"
   id="path3260-5"
   d="m 847.55147,442.69383 c 0.23352,5.2527 0.17788,10.48188 -0.33209,15.71319 -0.18008,3.71014 -0.9874,7.29026 -1.85521,10.88226 0,0 16.36691,8.81933 16.36691,8.81933 v 0 c 0.83801,-3.69467 1.65448,-7.36951 1.81275,-11.17424 0.55606,-5.24685 0.6097,-10.48349 0.65729,-15.75712 0,0 -16.64965,-8.48342 -16.64965,-8.48342 z" /><path
   style="fill:#000080;fill-opacity:1"
   id="path3264"
   d="m 224.66075,202.44454 c 7.25471,0.0297 14.48108,-0.68441 21.71357,-1.17447 5.35705,-0.36724 10.72483,-0.5166 16.09301,-0.57476 3.32961,0.21234 7.00313,-0.78949 10.01223,0.93755 -18.55615,-10.24484 -10.54603,-8.75186 -8.62867,-0.17912 0.34839,2.86842 1.4414,6.17124 -1.1096,8.20396 -2.91941,1.41343 -6.24889,1.39339 -9.42505,1.46759 -3.51942,0.0313 -7.03899,-0.0155 -10.55836,-0.0379 -3.82658,-0.0219 -7.65324,-0.0119 -11.47988,-0.0171 -3.7667,-0.003 -7.53342,-0.0163 -11.3001,-0.002 -4.10959,0.0864 -8.23186,-0.2284 -12.31734,0.27325 -0.70938,0.10308 -1.41875,0.20616 -2.12812,0.30924 0,0 12.11388,8.5536 12.11388,8.5536 v 0 c 0.69759,-0.0882 1.39519,-0.17637 2.09279,-0.26455 4.07628,-0.28672 8.16825,-0.0863 12.25254,-0.14311 3.76577,0.014 7.53157,1.2e-4 11.29736,0.002 3.83412,0.001 7.66811,0.0176 11.50214,0.0436 3.53031,0.023 7.0617,0.0744 10.5915,-0.0122 3.46568,-0.15342 7.07384,-0.30166 10.04303,-2.30994 3.09182,-3.04906 2.23134,-5.58712 1.82398,-9.56297 -1.61222,-9.44053 -6.21823,-10.42416 -16.51062,-15.55927 -3.35473,-0.85753 -6.86033,-0.32087 -10.28852,-0.4027 -5.3309,0.11838 -10.65805,0.35962 -15.9757,0.76085 -7.2811,0.56451 -14.57409,1.24219 -21.88532,0.91856 0,0 12.07125,8.77029 12.07125,8.77029 z" /><path
   style="fill:#000080;fill-opacity:1"
   id="path3264-2"
   d="m 850.00055,550.60935 c 7.2547,0.0297 14.4811,-0.68441 21.7135,-1.17447 5.3571,-0.36724 10.7249,-0.5166 16.093,-0.57476 3.3297,0.21234 7.0032,-0.78949 10.0123,0.93755 -18.5562,-10.24484 -10.546,-8.75186 -8.6287,-0.17912 0.3484,2.86842 1.4414,6.17124 -1.1096,8.20396 -2.9194,1.41343 -6.2489,1.39339 -9.425,1.46759 -3.5195,0.0313 -7.039,-0.0155 -10.5584,-0.0379 -3.8266,-0.0219 -7.6532,-0.0119 -11.4799,-0.0171 -3.7667,-0.003 -7.5334,-0.0163 -11.3001,-0.002 -4.1096,0.0864 -8.2318,-0.2284 -12.3173,0.27325 -0.7094,0.10308 -1.4188,0.20616 -2.1281,0.30924 0,0 12.1138,8.5536 12.1138,8.5536 v 0 c 0.6976,-0.0882 1.3952,-0.17637 2.0928,-0.26455 4.0763,-0.28672 8.1683,-0.0863 12.2526,-0.14311 3.7657,0.014 7.5315,1.2e-4 11.2973,0.002 3.8342,10e-4 7.6681,0.0176 11.5022,0.0436 3.5303,0.023 7.0617,0.0744 10.5915,-0.0122 3.4657,-0.15342 7.0738,-0.30166 10.043,-2.30994 3.0918,-3.04906 2.2313,-5.58712 1.824,-9.56297 -1.6122,-9.44053 -6.2183,-10.42416 -16.5106,-15.55927 -3.3548,-0.85753 -6.8604,-0.32087 -10.2886,-0.4027 -5.3309,0.11838 -10.658,0.35962 -15.9757,0.76085 -7.2811,0.56451 -14.574,1.24219 -21.8853,0.91856 0,0 12.0713,8.77029 12.0713,8.77029 z" /><path
   style="fill:#000080;fill-opacity:1;stroke-width:1.30048"
   id="path3268"
   d="m 255.83571,152.58981 c 0.51213,6.33346 1.29889,12.5749 2.05216,18.83531 0,0 13.32646,10.9199 13.32646,10.9199 v 0 c -0.7445,-6.19425 -1.66849,-12.32882 -1.95074,-18.65249 0,0 -13.42788,-11.10272 -13.42788,-11.10272 z" /><path
   style="fill:#000080;fill-opacity:1"
   id="path3268-0"
   d="m 867.94169,505.46264 c 0.51213,3.74485 1.29889,7.43529 2.05216,11.13695 0,0 13.32646,6.45672 13.32646,6.45672 v 0 c -0.7445,-3.66254 -1.66849,-7.28979 -1.95074,-11.02885 0,0 -13.42788,-6.56482 -13.42788,-6.56482 z" /><path
   style="fill:#000080;fill-opacity:1"
   id="path3270"
   d="m 285.24225,159.85673 c 0.13778,5.72476 0.0877,11.45182 0.056,17.17753 0.16954,3.80152 -0.0591,7.50118 -0.78449,11.22546 -0.0891,0.50634 -0.17826,1.01268 -0.26739,1.51902 0,0 13.1682,6.9954 13.1682,6.9954 v 0 c 0.084,-0.49744 0.16806,-0.99488 0.2521,-1.49232 0.73991,-3.83583 1.05694,-7.62543 0.78904,-11.5435 -0.0314,-5.70666 -0.0827,-11.41474 0.056,-17.12044 0,0 -13.26951,-6.76115 -13.26951,-6.76115 z" /><path
   style="fill:#000080;fill-opacity:1"
   id="path3270-1"
   d="m 893.79826,499.2755 c 0.13778,5.72476 0.0877,11.45182 0.056,17.17753 0.16954,3.80152 -0.0591,7.50118 -0.78449,11.22546 -0.0891,0.50634 -0.17826,1.01268 -0.26739,1.51902 0,0 13.1682,6.9954 13.1682,6.9954 v 0 c 0.084,-0.49744 0.16806,-0.99488 0.2521,-1.49232 0.73991,-3.83583 1.05694,-7.62543 0.78904,-11.5435 -0.0314,-5.70666 -0.0827,-11.41474 0.056,-17.12044 0,0 -13.26951,-6.76115 -13.26951,-6.76115 z" /><path
   style="fill:#000080;fill-opacity:1"
   id="path3274"
   d="m 292.22148,237.20008 c 4.79018,0.19111 9.51241,-0.33136 14.25642,-0.90618 3.96289,-0.51301 7.95284,-0.71595 11.94436,-0.81439 4.74847,0.9419 14.54155,6.6673 -9.186,-5.71791 -0.33678,-0.1758 0.56356,0.51932 0.77781,0.83305 0.56079,0.82116 0.65169,1.48859 0.9103,2.43657 0.65904,2.95422 0.52878,5.29412 -1.80316,7.33267 -3.33459,1.46329 -6.8877,2.43733 -10.46983,3.08825 -4.02397,0.55852 -8.09347,0.60804 -12.14868,0.64392 -2.83782,0.009 -5.6756,0.0195 -8.51344,0.0173 0,0 11.97155,8.70075 11.97155,8.70075 v 0 c 2.85791,0.007 5.71603,0.0365 8.57383,-0.001 4.11145,-0.0749 8.24023,-0.18178 12.30475,-0.86315 3.76776,-0.79988 7.6477,-1.76695 10.97867,-3.74583 2.5414,-2.50368 3.19354,-5.16348 2.54233,-8.68438 -1.40577,-8.36588 -9.74642,-12.25072 -17.99747,-12.74567 -3.9982,0.14491 -7.98941,0.42679 -11.95528,0.97199 -4.74892,0.58116 -9.49111,0.92868 -14.28021,0.66736 0,0 12.09405,8.78685 12.09405,8.78685 z" /><path
   style="fill:#000080;fill-opacity:1"
   id="path3274-0"
   d="m 913.46867,584.62589 c 4.79018,0.19111 9.51241,-0.33136 14.25642,-0.90618 3.96289,-0.51301 7.95284,-0.71595 11.94436,-0.81439 4.74847,0.9419 14.54155,6.66731 -9.186,-5.71791 -0.33678,-0.1758 0.56356,0.51932 0.77781,0.83305 0.56079,0.82116 0.65169,1.48859 0.9103,2.43657 0.65904,2.95422 0.52878,5.29412 -1.80316,7.33267 -3.33459,1.46329 -6.8877,2.43733 -10.46983,3.08825 -4.02397,0.55852 -8.09347,0.60804 -12.14868,0.64392 -2.83782,0.009 -5.6756,0.0195 -8.51344,0.0173 0,0 11.97155,8.70075 11.97155,8.70075 v 0 c 2.85791,0.007 5.71603,0.0365 8.57383,-10e-4 4.11145,-0.0749 8.24023,-0.18178 12.30475,-0.86315 3.76776,-0.79988 7.6477,-1.76695 10.97867,-3.74583 2.5414,-2.50368 3.19354,-5.16348 2.54233,-8.68438 -1.40577,-8.36588 -9.74642,-12.25072 -17.99747,-12.74567 -3.9982,0.14491 -7.98941,0.42679 -11.95528,0.97199 -4.74892,0.58116 -9.49111,0.92868 -14.28021,0.66736 0,0 12.09405,8.78685 12.09405,8.78685 z" /><path
   style="fill:#000080;fill-opacity:1"
   id="path3276"
   d="m 314.75231,201.12502 c 0.064,2.18448 0.0608,4.3701 0.0663,6.55526 0,0 13.18705,6.71913 13.18705,6.71913 v 0 c 0.005,-2.16261 0.002,-4.32573 0.0663,-6.48765 0,0 -13.31972,-6.78674 -13.31972,-6.78674 z" /><path
   style="fill:#000080;fill-opacity:1"
   id="path3276-7"
   d="m 926.3042,547.58164 c 0.064,2.18448 0.0608,4.3701 0.0663,6.55526 0,0 13.18705,6.71913 13.18705,6.71913 v 0 c 0.005,-2.16261 0.002,-4.32573 0.0663,-6.48765 0,0 -13.31972,-6.78674 -13.31972,-6.78674 z" /><path
   style="fill:#000080;fill-opacity:1"
   id="path3280"
   d="m 340.98664,199.69698 c 0.77765,5.09094 1.35627,10.21336 0.95391,15.3581 -0.2495,2.02065 -1.14942,3.69763 -2.1612,5.41059 0,0 12.92764,7.47467 12.92764,7.47467 v 0 c 1.11327,-1.9156 2.08648,-3.81244 2.39212,-6.05036 0.41149,-5.23067 -0.20594,-10.40118 -0.72487,-15.60926 0,0 -13.3876,-6.58374 -13.3876,-6.58374 z" /><path
   style="fill:#000080;fill-opacity:1"
   id="path3280-1"
   d="m 947.29257,550.52132 c 0.77765,5.09094 1.35627,10.21336 0.95391,15.3581 -0.2495,2.02065 -1.14942,3.69763 -2.1612,5.41059 0,0 12.92764,7.47467 12.92764,7.47467 v 0 c 1.11327,-1.9156 2.08648,-3.81244 2.39212,-6.05036 0.41149,-5.23067 -0.20594,-10.40118 -0.72487,-15.60926 0,0 -13.3876,-6.58374 -13.3876,-6.58374 z" /><path
   style="fill:#000080"
   id="path427"
   d="m 130.79232,37.412361 c 0.17143,5.779247 0.0985,11.562655 0.0608,17.343446 -0.0195,3.032232 -0.0104,1.545565 -0.0272,4.460001 0,0 23.2757,11.859562 23.2757,11.859562 v 0 c -0.0168,-2.932055 -0.008,-1.436141 -0.0272,-4.487742 -0.0372,-5.760107 -0.11181,-11.522952 0.0608,-17.281464 0,0 -23.34291,-11.893803 -23.34291,-11.893803 z" /><path
   style="fill:#000080"
   id="path429"
   d="m 96.322115,22.065492 c 1.23472,4.388344 1.97079,8.889558 2.55798,13.403016 0,0 23.362835,11.533494 23.362835,11.533494 v 0 c -0.57036,-4.572773 -1.32349,-9.116614 -2.30074,-13.621505 0,0 -23.620075,-11.315005 -23.620075,-11.315005 z" /><path
   style="fill:#000080"
   id="path431"
   d="m 179.36848,99.069627 c -0.002,5.551313 0.33102,11.128393 -0.11812,16.667333 0,0 19.8288,10.31733 19.8288,10.31733 v 0 c 0.50003,-5.57815 0.044,-11.19615 0.29752,-16.78997 0,0 -20.0082,-10.194693 -20.0082,-10.194693 z" /><path
   style="fill:#000080"
   id="path455"
   d="m 210.64102,107.75644 c 0.0828,6.82888 0.33489,13.66875 -0.0772,20.48964 -0.0968,0.97126 -0.19358,1.94253 -0.29038,2.9138 0,0 19.75406,10.30692 19.75406,10.30692 v 0 c 0.0944,-1.00108 0.1889,-2.00215 0.28335,-3.00322 0.44095,-6.82619 0.0728,-13.67635 0.33841,-20.51245 0,0 -20.0082,-10.19469 -20.0082,-10.19469 z" /></g>
<g
   id="skeleton_1_"
   sodipodi:insensitive="true"
   style="opacity:0.25">
	<circle
   id="rightShoulder"
   cx="392.79999"
   cy="294.29999"
   r="8.1999998" />
	<circle
   id="rightElbow"
   cx="289.29999"
   cy="294.39999"
   r="8.1999998" />
	
		<circle
   id="rightWrist"
   transform="matrix(0.9951,-0.09853767,0.09853767,0.9951,-29.0274,13.8698)"
   cx="125.9"
   cy="300.79999"
   r="8.1999998" />
	<circle
   id="rightHip"
   cx="443.10001"
   cy="510.10001"
   r="8.1999998" />
	<circle
   id="rightKnee"
   cx="449.5"
   cy="670.29999"
   r="8.1999998" />
	<circle
   id="rightAnkle"
   cx="449.5"
   cy="878.29999"
   r="8.1999998" />
	<circle
   id="leftShoulder"
   cx="605.70001"
   cy="294.29999"
   r="8.1999998" />
	<circle
   id="leftElbow"
   cx="710.09998"
   cy="294"
   r="8.1999998" />
	<circle
   id="leftWrist"
   cx="873.5"
   cy="300.29999"
   r="8.1999998" />
	<circle
   id="leftHip"
   cx="559.5"
   cy="509.29999"
   r="8.1999998" />
	<circle
   id="leftKnee"
   cx="559.5"
   cy="670.29999"
   r="8.1999998" />
	<circle
   id="leftAnkle"
   cx="559.5"
   cy="878.29999"
   r="8.1999998" />
	<polygon
   style="fill:none;stroke:#000000;stroke-miterlimit:10"
   points="443,510.4 559.4,509.6 605.6,294.6 392.7,294.6 "
   id="polygon886" />
	<polyline
   style="fill:none;stroke:#000000;stroke-miterlimit:10"
   points="391.7,294.6 289,294.6 125.7,300.9  "
   id="polyline888" />
	<polyline
   style="fill:none;stroke:#000000;stroke-miterlimit:10"
   points="607.1,294.2 710.3,294.2 873.6,300.6  "
   id="polyline890" />
	<polyline
   style="fill:none;stroke:#000000;stroke-miterlimit:10"
   points="443,510.4 449.4,670.6 449.4,878.6  "
   id="polyline892" />
	<polyline
   style="fill:none;stroke:#000000;stroke-miterlimit:10"
   points="559.4,509.6 559.4,670.6 559.4,878.6  "
   id="polyline894" />
	<circle
   id="rightEye0"
   cx="468.60001"
   cy="160.2"
   r="0.80000001" />
	<circle
   id="rightBrow1"
   cx="466.39999"
   cy="148.3"
   r="0.80000001" />
	<circle
   id="rightBrow4"
   cx="489.70001"
   cy="151.3"
   r="0.80000001" />
	<circle
   id="nose1"
   cx="497.60001"
   cy="161.2"
   r="0.80000001" />
	<circle
   id="rightBrow3"
   cx="479.89999"
   cy="147.3"
   r="0.80000001" />
	<circle
   id="rightEye1"
   cx="473.79999"
   cy="156.5"
   r="0.80000001" />
	<circle
   id="rightBrow0"
   cx="462.39999"
   cy="152"
   r="0.80000001" />
	<circle
   id="rightBrow2"
   cx="472.60001"
   cy="147.3"
   r="0.80000001" />
	<circle
   id="rightEye5"
   cx="473.79999"
   cy="162.5"
   r="0.80000001" />
	<circle
   id="rightEye2"
   cx="480.10001"
   cy="156.5"
   r="0.80000001" />
	<circle
   id="rightEye3"
   cx="485.29999"
   cy="160.7"
   r="0.80000001" />
	<circle
   id="nose0"
   cx="497.60001"
   cy="155.39999"
   r="0.80000001" />
	<circle
   id="nose3"
   cx="497.60001"
   cy="173.8"
   r="0.80000001" />
	<circle
   id="rightNose0"
   cx="486.89999"
   cy="178.3"
   r="0.80000001" />
	<circle
   id="rightMouthCorner"
   cx="480.89999"
   cy="200.39999"
   r="0.80000001" />
	<circle
   id="rightNose1"
   cx="492.10001"
   cy="178.3"
   r="0.80000001" />
	<circle
   id="rightUpperLipTop0"
   cx="487.79999"
   cy="197"
   r="0.80000001" />
	<circle
   id="nose2"
   cx="497.60001"
   cy="166.7"
   r="0.80000001" />
	<circle
   id="nose4"
   cx="497.60001"
   cy="179.10001"
   r="0.80000001" />
	<circle
   id="upperLipTopMid"
   cx="498.39999"
   cy="196.8"
   r="0.80000001" />
	<circle
   id="rightUpperLipTop1"
   cx="494.29999"
   cy="195.89999"
   r="0.80000001" />
	<path
   id="rightMiddleLip"
   d="m 484.5,199.9 c 0.4,0 0.8,0.4 0.8,0.8 0,0.4 -0.4,0.8 -0.8,0.8 -0.4,0 -0.8,-0.4 -0.8,-0.8 0,-0.4 0.4,-0.8 0.8,-0.8 z" />
	<circle
   id="lowerLipBottomMid"
   cx="498.39999"
   cy="210"
   r="0.80000001" />
	<circle
   id="upperLipBottomMid"
   cx="498.39999"
   cy="200.39999"
   r="0.80000001" />
	<circle
   id="lowerLipTopMid"
   cx="498.39999"
   cy="203.5"
   r="0.80000001" />
	<circle
   id="rightUpperLipBottom1"
   cx="494.5"
   cy="199.89999"
   r="0.80000001" />
	<circle
   id="rightLowerLipTop0"
   cx="494.5"
   cy="202.8"
   r="0.80000001" />
	<circle
   id="rightLowerLipBottom1"
   cx="494.29999"
   cy="209.5"
   r="0.80000001" />
	<circle
   id="rightLowerLipBottom0"
   cx="487.29999"
   cy="206.7"
   r="0.80000001" />
	<circle
   id="rightEye4"
   cx="480.10001"
   cy="161.7"
   r="0.80000001" />
	<circle
   id="jawMid"
   cx="498.39999"
   cy="235.8"
   r="0.80000001" />
	<circle
   id="rightJaw7"
   cx="483.39999"
   cy="232.60001"
   r="0.80000001" />
	<circle
   id="rightJaw6"
   cx="473.39999"
   cy="225.89999"
   r="0.80000001" />
	<circle
   id="rightJaw5"
   cx="461.79999"
   cy="213.39999"
   r="0.80000001" />
	<circle
   id="rightJaw4"
   cx="455"
   cy="193.39999"
   r="0.80000001" />
	<circle
   id="rightJaw3"
   cx="454.20001"
   cy="171.7"
   r="0.80000001" />
	<circle
   id="rightJaw2"
   cx="454.20001"
   cy="162.2"
   r="0.80000001" />
	<circle
   id="rightJaw1"
   cx="455"
   cy="150.5"
   r="0.80000001" />
	<circle
   id="rightJaw0"
   cx="457.5"
   cy="141.2"
   r="0.80000001" />
	<circle
   id="topMid"
   cx="498.60001"
   cy="115.1"
   r="0.80000001" />
	<circle
   id="leftTop0"
   cx="518.29999"
   cy="117.6"
   r="0.80000001" />
	<circle
   id="leftTop1"
   cx="530.90002"
   cy="127.1"
   r="0.80000001" />
	<circle
   id="leftEye0"
   cx="528.20001"
   cy="160.2"
   r="0.80000001" />
	<circle
   id="leftBrow1"
   cx="530.09998"
   cy="148.7"
   r="0.80000001" />
	<circle
   id="leftBrow4"
   cx="506.5"
   cy="150.8"
   r="0.80000001" />
	<circle
   id="leftBrow3"
   cx="516.5"
   cy="147.60001"
   r="0.80000001" />
	<circle
   id="leftEye1"
   cx="523"
   cy="156.5"
   r="0.80000001" />
	<circle
   id="leftBrow0"
   cx="534.09998"
   cy="151.60001"
   r="0.80000001" />
	<circle
   id="leftBrow2"
   cx="523.79999"
   cy="147.2"
   r="0.80000001" />
	<circle
   id="leftEye5"
   cx="523"
   cy="162.5"
   r="0.80000001" />
	<circle
   id="leftEye2"
   cx="516.70001"
   cy="156.5"
   r="0.80000001" />
	<circle
   id="leftEye3"
   cx="511.5"
   cy="160.7"
   r="0.80000001" />
	<circle
   id="leftNose0"
   cx="508"
   cy="178.3"
   r="0.80000001" />
	<circle
   id="leftMouthCorner"
   cx="515.90002"
   cy="200.39999"
   r="0.80000001" />
	<circle
   id="leftNose1"
   cx="503.20001"
   cy="178.3"
   r="0.80000001" />
	<circle
   id="leftUpperLipTop0"
   cx="509"
   cy="197"
   r="0.80000001" />
	<circle
   id="leftUpperLipTop1"
   cx="502.60001"
   cy="195.89999"
   r="0.80000001" />
	<path
   id="leftMiddleLip"
   d="m 512.3,199.9 c 0.4,0 0.8,0.4 0.8,0.8 0,0.4 -0.4,0.8 -0.8,0.8 -0.4,0 -0.8,-0.4 -0.8,-0.8 0,-0.4 0.4,-0.8 0.8,-0.8 z" />
	<circle
   id="leftUpperLipBottom1"
   cx="502.39999"
   cy="199.89999"
   r="0.80000001" />
	<circle
   id="leftLowerLipTop0"
   cx="502.39999"
   cy="202.8"
   r="0.80000001" />
	<circle
   id="leftLowerLipBottom1"
   cx="502.60001"
   cy="209.5"
   r="0.80000001" />
	<circle
   id="leftLowerLipBottom0"
   cx="509.5"
   cy="206.7"
   r="0.80000001" />
	<circle
   id="leftEye4"
   cx="516.70001"
   cy="161.7"
   r="0.80000001" />
	<circle
   id="leftJaw7"
   cx="513.20001"
   cy="233"
   r="0.80000001" />
	<circle
   id="leftJaw6"
   cx="523.20001"
   cy="226.3"
   r="0.80000001" />
	<circle
   id="leftJaw5"
   cx="534.79999"
   cy="213.7"
   r="0.80000001" />
	<circle
   id="leftJaw4"
   cx="541.59998"
   cy="193.7"
   r="0.80000001" />
	<circle
   id="leftJaw3"
   cx="542.40002"
   cy="172.10001"
   r="0.80000001" />
	<circle
   id="leftJaw2"
   cx="542.40002"
   cy="162.5"
   r="0.80000001" />
	<circle
   id="leftJaw1"
   cx="541.59998"
   cy="150.8"
   r="0.80000001" />
	<circle
   id="leftJaw0"
   cx="539.09998"
   cy="141.60001"
   r="0.80000001" />
	<polyline
   style="fill:none;stroke:#000000;stroke-miterlimit:10"
   points="498.4,115.1 478.6,117.6 466.1,127.1 457.5,141.2    455,150.5 454.2,162.2 454.2,171.7 455,193.4 461.8,213.4 473.4,225.9 483.4,232.6 498.4,235.8 513.2,233 523.2,226.3 534.8,213.7    541.6,193.7 542.4,172.1 542.4,162.5 541.6,150.8 539.1,141.6 530.9,127.1 518.3,117.6 498.4,115.1  "
   id="polyline967" />
	<polyline
   style="fill:none;stroke:#000000;stroke-miterlimit:10"
   points="462.4,152 466.4,148.3 472.6,147.3 479.9,147.3    489.7,151.3  "
   id="polyline969" />
	<polygon
   style="fill:none;stroke:#000000;stroke-miterlimit:10"
   points="473.8,156.5 480.1,156.5 485.3,160.7 480.1,161.7 473.8,162.5 468.6,160.2 "
   id="polygon971" />
	<polyline
   style="fill:none;stroke:#000000;stroke-miterlimit:10"
   points="486.9,178.3 492.1,178.3 497.6,179.1 497.6,173.8    497.6,166.7 497.6,161.2 497.6,155.4  "
   id="polyline973" />
	<polyline
   style="fill:none;stroke:#000000;stroke-miterlimit:10"
   points="533.9,151.6 529.9,148.7 523.6,147.2 516.3,147.6    506.3,150.8  "
   id="polyline975" />
	<polygon
   style="fill:none;stroke:#000000;stroke-miterlimit:10"
   points="522.7,156.5 516.4,156.5 511.3,160.7 516.4,161.7 522.7,162.5 528,160.2 "
   id="polygon977" />
	<polyline
   style="fill:none;stroke:#000000;stroke-miterlimit:10"
   points="508,178.3 503,178.3 497.6,179.1  "
   id="polyline979" />
	<polygon
   style="fill:none;stroke:#000000;stroke-miterlimit:10"
   points="487.8,197 494.3,195.9 498.4,196.8 502.6,195.9 509,197 515.9,200.4 509.5,206.7 502.4,209.5 498.4,210 494.3,209.5 487.3,206.7 480.9,200.4 "
   id="polygon981" />
	<polyline
   style="fill:none;stroke:#000000;stroke-miterlimit:10"
   points="480.9,200.4 484.5,200.7 494.5,199.9 498.4,200.4    502.4,199.9 512.3,200.7 515.9,200.4  "
   id="polyline983" />
	<polyline
   style="fill:none;stroke:#000000;stroke-miterlimit:10"
   points="480.9,200.4 484.5,200.7 494.5,202.8 498.4,203.6    502.4,202.8 512.3,200.7 515.9,200.4  "
   id="polyline985" />
	<circle
   id="rightTop0"
   cx="478.70001"
   cy="117.6"
   r="0.80000001" />
	<circle
   id="rightTop1"
   cx="466.10001"
   cy="127.1"
   r="0.80000001" />
</g>
</svg>
